<svg width="448" height="153" viewBox="0 0 448 153" fill="none" xmlns="http://www.w3.org/2000/svg">
<path d="M54.3801 146.423C62.3747 146.283 70.1589 145.442 77.7327 143.899C85.3065 142.216 90.496 140.042 93.3011 137.377V150L0.311516 150L0.311516 147.896C3.67765 147.616 6.062 146.985 7.46456 146.003C9.00737 144.881 9.91904 143.548 10.1995 142.005C10.6203 140.463 10.8307 138.359 10.8307 135.694L10.8307 17.0376C10.8307 14.3727 10.6203 12.2689 10.1996 10.726C9.91906 9.18324 9.0074 7.92094 7.46458 6.93915C6.06203 5.8171 3.67768 5.11582 0.311541 4.8353L0.311542 2.73147L33.9729 2.73147V4.83531C30.6068 5.11582 28.1523 5.81711 26.6095 6.93915C25.2069 7.92094 24.2953 9.18324 23.8745 10.726C23.594 12.2689 23.4537 14.3727 23.4537 17.0376L23.4537 145.792L54.3801 146.423Z" fill="#F4FFAF"/>
<path d="M119.8 29.6606C117.976 29.6606 116.504 29.0294 115.382 27.7671C114.4 26.3646 113.909 24.6815 113.909 22.7179C113.909 19.6323 115.031 16.7571 117.275 14.0922C119.659 11.4274 122.184 10.0949 124.849 10.0949C126.532 10.0949 127.864 10.7261 128.846 11.9884C129.968 13.2507 130.529 14.8636 130.529 16.8272C130.529 20.0531 129.337 22.9985 126.953 25.6633C124.709 28.3282 122.324 29.6606 119.8 29.6606ZM129.056 135.694C129.056 138.359 129.197 140.463 129.477 142.005C129.898 143.548 130.81 144.881 132.212 146.003C133.755 146.985 136.209 147.616 139.576 147.896V150L105.914 150V147.896C109.28 147.616 111.665 146.985 113.067 146.003C114.61 144.881 115.522 143.548 115.802 142.005C116.223 140.463 116.433 138.359 116.433 135.694L116.433 61.2181C116.433 57.5715 116.223 55.1871 115.802 54.0651C115.382 52.943 114.119 52.382 112.015 52.382C110.332 52.382 108.299 52.6625 105.914 53.2236V51.1197L129.056 42.7044L129.056 135.694Z" fill="#F4FFAF"/>
<path d="M243.448 135.694C243.448 138.359 243.588 140.463 243.868 142.005C244.289 143.548 245.201 144.881 246.603 146.003C248.146 146.985 250.601 147.616 253.967 147.896V150H220.726V147.896C225.074 147.475 227.879 146.494 229.142 144.951C230.404 143.268 231.105 140.743 231.245 137.377L232.297 99.2976C232.578 88.6382 232.157 79.9423 231.035 73.21C230.053 66.4777 228.3 61.2883 225.775 57.6416C223.251 54.1352 220.305 51.5405 216.939 49.8574C213.573 48.0341 210.137 47.1225 206.63 47.1225C201.862 47.1225 197.724 48.7354 194.218 51.9613C190.711 55.1872 188.958 59.465 188.958 64.7947C188.958 68.0206 189.519 71.3867 190.641 74.8931C191.763 78.2592 193.587 83.1682 196.111 89.6199C198.636 94.9497 200.109 98.8768 200.529 101.401C200.95 103.365 200.599 104.978 199.477 106.24C198.496 107.503 197.163 108.134 195.48 108.134C193.657 108.134 191.904 107.292 190.221 105.609C188.678 103.926 187.626 101.331 187.065 97.8249C185.943 91.3731 184.26 88.1473 182.016 88.1473C180.473 88.1473 179.14 89.2693 178.018 91.5134C176.195 95.3003 175.283 101.191 175.283 109.186V135.694C175.283 138.359 175.424 140.463 175.704 142.005C176.125 143.548 177.036 144.881 178.439 146.003C179.982 146.985 182.436 147.616 185.802 147.896V150H152.141V147.896C155.507 147.616 157.892 146.985 159.294 146.003C160.837 144.881 161.749 143.548 162.029 142.005C162.45 140.463 162.66 138.359 162.66 135.694L162.66 61.2181C162.66 57.5715 162.45 55.1871 162.029 54.0651C161.608 52.9431 160.346 52.382 158.242 52.382C156.559 52.382 154.525 52.6625 152.141 53.2236V51.1197L175.283 42.7044V90.4615C175.844 88.6381 176.686 87.2356 177.808 86.2538C178.93 85.272 180.052 84.7811 181.174 84.7811C182.857 84.7811 184.4 85.6928 185.802 87.5161C187.205 89.3394 188.257 92.0043 188.958 95.5107C190.08 100.84 191.763 103.505 194.007 103.505C194.568 103.505 195.129 103.295 195.691 102.874C196.252 102.313 196.602 101.822 196.742 101.401C197.023 100.42 196.672 98.8067 195.691 96.5626C194.709 94.1782 193.587 91.6536 192.324 88.9888C189.519 82.8175 187.415 77.7683 186.013 73.8412C184.61 69.7737 183.909 65.9167 183.909 62.2701C183.909 55.5378 186.714 50.2782 192.324 46.4913C198.075 42.7044 204.737 40.8109 212.311 40.8109C216.378 40.8109 220.165 41.4421 223.672 42.7044C227.318 43.9667 230.264 45.7199 232.508 47.964C236.856 52.4522 239.731 58.6936 241.133 66.6881C242.676 74.5425 243.448 85.2019 243.448 98.6664L243.448 135.694Z" fill="#F4FFAF"/>
<path d="M351.573 56.3794C347.786 55.9586 344.07 55.7482 340.423 55.7482C326.257 55.7482 314.896 58.4832 306.341 63.9532C297.785 69.4231 292.876 76.9268 291.614 86.4642C291.474 88.4278 291.894 89.9706 292.876 91.0926C293.998 92.0744 295.471 92.5653 297.294 92.5653C299.959 92.5653 302.554 91.7939 305.078 90.2511C307.603 88.568 310.619 86.1837 314.125 83.0981C317.351 80.1527 320.156 77.9086 322.54 76.3658C324.925 74.823 327.379 74.0516 329.904 74.0516C336.636 74.0516 340.002 77.4878 340.002 84.3604C340.002 88.9888 338.67 95.3003 336.005 103.295C333.48 111.009 332.218 117.461 332.218 122.65C332.218 132.468 337.407 137.377 347.786 137.377L346.945 150C338.529 150 332.288 148.107 328.221 144.32C324.294 140.533 322.33 135.343 322.33 128.751C322.33 121.037 324.714 112.552 329.483 103.295C333.27 95.8613 335.163 90.181 335.163 86.2538C335.163 82.3267 333.34 80.3631 329.693 80.3631C327.73 80.3631 325.906 80.854 324.223 81.8358C322.681 82.8176 320.647 84.3604 318.122 86.4642C315.177 88.9888 312.372 91.0225 309.707 92.5653C307.182 94.1081 304.167 95.2302 300.66 95.9315C299.959 96.0717 298.977 96.1418 297.715 96.1418C293.648 96.1418 290.983 94.5289 289.72 91.303V135.694C289.72 138.359 289.861 140.463 290.141 142.005C290.562 143.548 291.474 144.881 292.876 146.003C294.419 146.985 296.874 147.616 300.24 147.896V150L266.578 150V147.896C269.944 147.616 272.329 146.985 273.731 146.003C275.274 144.881 276.186 143.548 276.466 142.005C276.887 140.463 277.097 138.359 277.097 135.694V19.1414C277.097 15.4948 276.887 13.1105 276.466 11.9884C276.046 10.8664 274.783 10.3053 272.679 10.3053C270.996 10.3053 268.963 10.5858 266.578 11.1469V9.04303L289.72 0.627686V82.0461C291.263 75.4541 294.77 69.2127 300.24 63.322C305.85 57.4313 313.073 52.7327 321.909 49.2263C330.886 45.5797 340.774 43.7563 351.573 43.7563V56.3794Z" fill="#F4FFAF"/>
<path d="M401.666 152.104C396.336 151.403 391.778 150.14 387.991 148.317C384.204 146.353 379.926 143.759 375.158 140.533C369.828 136.746 365.48 134.362 362.114 133.38L367.163 122.44C369.968 123.702 372.282 125.245 374.106 127.068C375.929 128.751 378.173 131.206 380.838 134.432C384.064 138.499 387.079 141.725 389.884 144.109C392.83 146.353 396.827 147.896 401.876 148.738C404.401 149.018 406.154 149.159 407.136 149.159C414.008 149.159 419.549 147.055 423.756 142.847C428.104 138.639 430.278 133.24 430.278 126.647C430.278 124.684 430.068 122.79 429.647 120.967C428.665 116.339 426.772 112.552 423.967 109.606C421.302 106.661 418.216 104.417 414.71 102.874C411.203 101.191 406.505 99.3678 400.614 97.4042C394.864 95.5808 390.165 93.8978 386.518 92.355C383.012 90.6719 379.716 88.3577 376.63 85.4123C373.685 82.4669 371.511 78.7501 370.108 74.262C369.407 71.8776 369.056 69.8439 369.056 68.1608C369.056 63.5324 370.599 59.1845 373.685 55.1171C376.911 51.0496 381.399 47.7536 387.149 45.229C392.9 42.7044 399.562 41.4421 407.136 41.4421C416.533 41.4421 424.528 43.7564 431.12 48.3848C437.852 52.873 443.322 58.4832 447.53 65.2155L442.691 77.2074L440.377 72.3685C437.992 66.8985 435.608 62.3402 433.223 58.6936C430.839 55.0469 427.473 51.8211 423.125 49.0159C418.777 46.2108 413.307 44.8083 406.715 44.8083C398.44 44.8083 391.778 46.5615 386.729 50.0679C381.679 53.5742 379.155 57.9222 379.155 63.1116C379.155 65.2155 379.576 67.3193 380.417 69.4231C382.24 74.0516 385.186 77.6982 389.253 80.3631C393.461 83.028 399.562 85.9733 407.557 89.1992C413.868 91.7238 419.058 94.038 423.125 96.1419C427.192 98.2457 430.839 101.121 434.065 104.768C437.291 108.414 439.395 112.902 440.376 118.232C440.797 120.336 441.008 122.44 441.008 124.544C441.008 132.819 437.922 139.551 431.751 144.74C425.72 149.93 417.795 152.525 407.977 152.525C406.575 152.525 404.471 152.384 401.666 152.104Z" fill="#F4FFAF"/>
</svg>
